<svg xmlns="http://www.w3.org/2000/svg" version="1.1" xmlns:xlink="http://www.w3.org/1999/xlink" xmlns:svgjs="http://svgjs.dev/svgjs" width="1000" height="1000" viewBox="0 0 1000 1000"><rect width="1000" height="1000" fill="#ffffff"></rect><g transform="matrix(0.7,0,0,0.7,149.5757615423883,447.8434712377752)"><svg viewBox="0 0 396 59" data-background-color="#ffffff" preserveAspectRatio="xMidYMid meet" height="148" width="1000" xmlns="http://www.w3.org/2000/svg" xmlns:xlink="http://www.w3.org/1999/xlink"><g id="tight-bounds" transform="matrix(1,0,0,1,0.2399977560203297,0.20304244180755404)"><svg viewBox="0 0 395.52 58.5939151163849" height="58.5939151163849" width="395.52"><g><svg viewBox="0 0 511.9110277241183 75.83654759710848" height="58.5939151163849" width="395.52"><g><rect width="3.1028815048847593" height="75.83654759710848" x="105.16541976665563" y="0" fill="#000000" opacity="1" stroke-width="0" stroke="transparent" fill-opacity="1" class="rect-o-0" data-fill-palette-color="primary" rx="1%" id="o-0" data-palette-color="#fdc10a"></rect></g><g transform="matrix(1,0,0,1,116.3910277241183,6.31971229975904)"><svg viewBox="0 0 395.52 63.1971229975904" height="63.1971229975904" width="395.52"><g><svg viewBox="0 0 395.52 63.1971229975904" height="63.1971229975904" width="395.52"><g><svg viewBox="0 0 395.52 34.40725212464589" height="34.40725212464589" width="395.52"><g transform="matrix(1,0,0,1,0,0)"><svg width="395.52" viewBox="3.2200000286102295 -35.5 413.6499938964844 35.9900016784668" height="34.40725212464589" data-palette-color="#fdc10a"><path d="M38.23-17.5L38.23-3.2Q38.23-2.51 37.99-1.93 37.74-1.34 37.32-0.92 36.89-0.49 36.3-0.24 35.72 0 35.03 0L35.03 0 12.13 0Q11.25 0 10.24-0.21 9.23-0.42 8.24-0.85 7.25-1.29 6.35-1.99 5.44-2.69 4.75-3.67 4.05-4.66 3.64-5.97 3.22-7.28 3.22-8.91L3.22-8.91 3.22-26.1Q3.22-26.98 3.43-27.99 3.64-29 4.08-29.99 4.52-30.98 5.22-31.88 5.93-32.79 6.92-33.48 7.91-34.18 9.2-34.59 10.5-35.01 12.13-35.01L12.13-35.01 37.94-35.01 37.94-28.66 12.13-28.66Q10.89-28.66 10.23-28 9.57-27.34 9.57-26.05L9.57-26.05 9.57-8.91Q9.57-7.69 10.24-7.02 10.91-6.35 12.13-6.35L12.13-6.35 31.88-6.35 31.88-14.31 14.99-14.31 14.99-20.7 35.03-20.7Q35.72-20.7 36.3-20.45 36.89-20.19 37.32-19.75 37.74-19.31 37.99-18.74 38.23-18.16 38.23-17.5L38.23-17.5ZM81.59-20.85L81.59-14.16Q81.59-10.96 80.49-8.28 79.39-5.59 77.44-3.64 75.49-1.68 72.81-0.6 70.14 0.49 66.99 0.49L66.99 0.49 58.4 0.49Q55.25 0.49 52.56-0.6 49.88-1.68 47.92-3.64 45.97-5.59 44.86-8.28 43.75-10.96 43.75-14.16L43.75-14.16 43.75-20.85Q43.75-24.02 44.86-26.72 45.97-29.42 47.92-31.36 49.88-33.3 52.56-34.4 55.25-35.5 58.4-35.5L58.4-35.5 66.99-35.5Q70.14-35.5 72.81-34.4 75.49-33.3 77.44-31.36 79.39-29.42 80.49-26.72 81.59-24.02 81.59-20.85L81.59-20.85ZM75.24-14.16L75.24-20.85Q75.24-22.73 74.64-24.26 74.05-25.78 72.96-26.87 71.87-27.95 70.35-28.55 68.82-29.15 66.99-29.15L66.99-29.15 58.4-29.15Q56.54-29.15 55.01-28.55 53.49-27.95 52.39-26.87 51.29-25.78 50.69-24.26 50.1-22.73 50.1-20.85L50.1-20.85 50.1-14.16Q50.1-12.28 50.69-10.75 51.29-9.23 52.39-8.14 53.49-7.06 55.01-6.46 56.54-5.86 58.4-5.86L58.4-5.86 66.94-5.86Q68.8-5.86 70.32-6.46 71.85-7.06 72.95-8.14 74.05-9.23 74.64-10.75 75.24-12.28 75.24-14.16L75.24-14.16ZM119.01-35.01L119.01-28.66 105.02-28.66 105.02 0 98.68 0 98.68-28.66 84.66-28.66 84.66-35.01 119.01-35.01ZM155.31-35.01L155.31-28.66 141.33-28.66 141.33 0 134.98 0 134.98-28.66 120.96-28.66 120.96-35.01 155.31-35.01ZM193.11-31.81L193.11 0 186.76 0 186.76-8.59 164.44-8.59 164.44 0 158.1 0 158.1-17.5Q158.1-21.34 159.41-24.56 160.73-27.78 163.08-30.1 165.42-32.42 168.62-33.72 171.82-35.01 175.6-35.01L175.6-35.01 189.91-35.01Q190.57-35.01 191.15-34.77 191.74-34.52 192.18-34.08 192.62-33.64 192.86-33.06 193.11-32.47 193.11-31.81L193.11-31.81ZM164.44-17.5L164.44-14.94 186.76-14.94 186.76-28.66 175.6-28.66Q175.31-28.66 174.37-28.58 173.43-28.49 172.19-28.15 170.96-27.81 169.59-27.1 168.23-26.39 167.08-25.15 165.93-23.9 165.19-22.03 164.44-20.17 164.44-17.5L164.44-17.5ZM254.99-35.01L261.44-35.01 255.58-2.2Q255.38-1.22 254.7-0.51 254.01 0.2 253.04 0.39L253.04 0.39Q252.04 0.56 251.14 0.17 250.25-0.22 249.74-1.05L249.74-1.05 238.12-20.14 226.47-1.05Q226.06-0.34 225.34 0.05 224.62 0.44 223.79 0.44L223.79 0.44Q222.64 0.44 221.76-0.29 220.88-1.03 220.69-2.2L220.69-2.2 214.78-35.01 221.23-35.01 225.42-11.89 235.43-27.86Q235.85-28.56 236.57-28.96 237.29-29.35 238.12-29.35L238.12-29.35Q238.95-29.35 239.66-28.96 240.37-28.56 240.83-27.86L240.83-27.86 250.79-11.89 254.99-35.01ZM300.81-31.81L300.81 0 294.46 0 294.46-8.59 272.15-8.59 272.15 0 265.8 0 265.8-17.5Q265.8-21.34 267.12-24.56 268.44-27.78 270.78-30.1 273.13-32.42 276.33-33.72 279.52-35.01 283.31-35.01L283.31-35.01 297.61-35.01Q298.27-35.01 298.86-34.77 299.45-34.52 299.88-34.08 300.32-33.64 300.57-33.06 300.81-32.47 300.81-31.81L300.81-31.81ZM272.15-17.5L272.15-14.94 294.46-14.94 294.46-28.66 283.31-28.66Q283.01-28.66 282.07-28.58 281.13-28.49 279.9-28.15 278.67-27.81 277.3-27.1 275.93-26.39 274.79-25.15 273.64-23.9 272.9-22.03 272.15-20.17 272.15-17.5L272.15-17.5ZM339.82-35.01L339.82-28.66 325.83-28.66 325.83 0 319.49 0 319.49-28.66 305.47-28.66 305.47-35.01 339.82-35.01ZM375.83-6.35L375.83 0 352.93 0Q352.05 0 351.04-0.21 350.03-0.42 349.04-0.85 348.05-1.29 347.15-1.99 346.24-2.69 345.55-3.67 344.85-4.66 344.44-5.97 344.02-7.28 344.02-8.91L344.02-8.91 344.02-26.1Q344.02-26.98 344.23-27.99 344.44-29 344.87-29.99 345.31-30.98 346.02-31.88 346.73-32.79 347.72-33.48 348.71-34.18 350-34.59 351.3-35.01 352.93-35.01L352.93-35.01 375.83-35.01 375.83-28.66 352.93-28.66Q351.69-28.66 351.03-28 350.37-27.34 350.37-26.05L350.37-26.05 350.37-8.91Q350.37-7.69 351.04-7.02 351.71-6.35 352.93-6.35L352.93-6.35 375.83-6.35ZM388.23-35.01L388.23-20.7 410.52-20.7 410.52-35.01 416.87-35.01 416.87 0 410.52 0 410.52-14.31 388.23-14.31 388.23 0 381.88 0 381.88-35.01 388.23-35.01Z" opacity="1" transform="matrix(1,0,0,1,0,0)" fill="#000000" class="undefined-text-0" data-fill-palette-color="primary" id="text-0"></path></svg></g></svg></g><g transform="matrix(1,0,0,1,0,42.5299785772238)"><svg viewBox="0 0 232.209792 20.667144420366597" height="20.667144420366597" width="232.209792"><g transform="matrix(1,0,0,1,0,0)"><svg width="232.209792" viewBox="0 -33.400001525878906 490.95001220703125 43.70000076293945" height="20.667144420366597" data-palette-color="#eb38b7"><path d="M25-32.75L15.1-14.15 15.1 0 9.9 0 9.9-14.15 0-32.75 5.8-32.75 12.3-19 12.7-19 19.2-32.75 25-32.75ZM29.65-21.13Q32.2-24.15 37.5-24.15 42.8-24.15 45.35-21.13 47.9-18.1 47.9-11.8 47.9-5.5 45.35-2.43 42.8 0.65 37.5 0.65 32.2 0.65 29.65-2.43 27.1-5.5 27.1-11.8 27.1-18.1 29.65-21.13ZM33.67-17.55Q32.65-15.8 32.65-11.8 32.65-7.8 33.7-6 34.75-4.2 37.5-4.2 40.25-4.2 41.3-6 42.35-7.8 42.35-11.8 42.35-15.8 41.32-17.55 40.3-19.3 37.5-19.3 34.7-19.3 33.67-17.55ZM72 0L67 0 66.9-1.75Q62.9 0.5 60.4 0.5L60.4 0.5Q56.35 0.5 54.5-1.83 52.65-4.15 52.65-9.25L52.65-9.25 52.65-23.75 57.8-23.75 57.8-9.55Q57.8-4.4 61.15-4.4L61.15-4.4Q63.8-4.4 66.84-6.45L66.84-6.45 66.84-23.75 72-23.75 72 0ZM82.89-19.15L79.04-19.15 79.04-23.75 88.04-23.75 88.14-21.35Q89.74-22.25 92.32-23.08 94.89-23.9 97.09-24.15L97.09-24.15 97.09-19.15Q95.14-18.95 92.44-18.1 89.74-17.25 88.14-16.35L88.14-16.35 88.14-4.5 95.44-4.5 95.44 0 79.04 0 79.04-4.6 82.89-4.6 82.89-19.15ZM133.59-4.7L146.94-4.7 146.94 0 128.39 0 128.39-32.75 133.59-32.75 133.59-4.7ZM160.69-19.05L155.14-19.05 155.14-23.65 165.84-23.65 165.84-4.6 171.39-4.6 171.39 0 154.74 0 154.74-4.6 160.69-4.6 160.69-19.05ZM160.84-28.03Q159.89-29 159.89-30.3 159.89-31.6 160.79-32.5L160.79-32.5Q161.69-33.4 162.99-33.4 164.29-33.4 165.19-32.52 166.09-31.65 166.09-30.3 166.09-28.95 165.19-28 164.29-27.05 163.04-27.05 161.79-27.05 160.84-28.03ZM178.13-1.1L178.13-1.1 179.23-5.65Q183.98-4.15 186.78-4.15 189.58-4.15 190.58-4.7L190.58-4.7Q191.58-5.2 191.58-6.5 191.58-7.8 190.68-8.35 189.78-8.9 187.28-9.5L187.28-9.5Q182.33-10.7 180.38-12.18 178.43-13.65 178.43-17L178.43-17Q178.43-24.15 187.63-24.15L187.63-24.15Q191.58-24.15 196.78-22.85L196.78-22.85 195.83-18.1Q190.88-19.5 188.18-19.5 185.48-19.5 184.56-19.03 183.63-18.55 183.63-17.4 183.63-16.25 184.56-15.73 185.48-15.2 189.33-14.15 193.18-13.1 194.98-11.73 196.78-10.35 196.78-7.05L196.78-7.05Q196.78 0.5 187.48 0.5L187.48 0.5Q183.13 0.5 178.13-1.1ZM206.98-9.1L206.98-19.15 203.18-19.15 203.18-23.75 206.98-23.75 206.98-29.45 212.13-29.95 212.13-23.75 221.03-23.75 221.03-19.15 212.13-19.15 212.13-9.1Q212.13-6.35 212.68-5.25L212.68-5.25Q213.28-4.15 215.28-4.15 217.28-4.15 220.58-4.95L220.58-4.95 221.43-0.45Q217.63 0.55 214.93 0.55L214.93 0.55Q210.13 0.55 208.56-1.6 206.98-3.75 206.98-9.1L206.98-9.1ZM240.98 0L233.73 0 233.73-7.25 240.98-7.25 240.98 0ZM299.97-32.75L290.07-14.15 290.07 0 284.87 0 284.87-14.15 274.97-32.75 280.77-32.75 287.27-19 287.67-19 294.17-32.75 299.97-32.75ZM304.62-21.13Q307.17-24.15 312.47-24.15 317.77-24.15 320.32-21.13 322.87-18.1 322.87-11.8 322.87-5.5 320.32-2.43 317.77 0.65 312.47 0.65 307.17 0.65 304.62-2.43 302.07-5.5 302.07-11.8 302.07-18.1 304.62-21.13ZM308.65-17.55Q307.62-15.8 307.62-11.8 307.62-7.8 308.67-6 309.72-4.2 312.47-4.2 315.22-4.2 316.27-6 317.32-7.8 317.32-11.8 317.32-15.8 316.3-17.55 315.27-19.3 312.47-19.3 309.67-19.3 308.65-17.55ZM346.97 0L341.97 0 341.87-1.75Q337.87 0.5 335.37 0.5L335.37 0.5Q331.32 0.5 329.47-1.83 327.62-4.15 327.62-9.25L327.62-9.25 327.62-23.75 332.77-23.75 332.77-9.55Q332.77-4.4 336.12-4.4L336.12-4.4Q338.77-4.4 341.82-6.45L341.82-6.45 341.82-23.75 346.97-23.75 346.97 0ZM357.87-19.15L354.02-19.15 354.02-23.75 363.02-23.75 363.12-21.35Q364.72-22.25 367.29-23.08 369.87-23.9 372.07-24.15L372.07-24.15 372.07-19.15Q370.12-18.95 367.42-18.1 364.72-17.25 363.12-16.35L363.12-16.35 363.12-4.5 370.42-4.5 370.42 0 354.02 0 354.02-4.6 357.87-4.6 357.87-19.15ZM410.21 0L402.81 0 399.96-32.75 404.96-32.75 407.16-4.6 407.46-4.6 410.56-19.15 415.01-19.15 417.96-4.6 418.31-4.6 420.06-32.75 424.91-32.75 422.66 0 415.06 0 412.76-12.9 412.61-12.9 410.21 0ZM435.76-4.3L435.76-4.3Q437.16-4.3 438.86-4.95 440.56-5.6 441.56-6.4L441.56-6.4 441.56-9.9Q438.56-10.15 436.66-10.15L436.66-10.15Q432.51-10.15 432.51-7.05L432.51-7.05Q432.51-4.3 435.76-4.3ZM434.96 0.55L434.96 0.55Q426.96 0.55 426.96-7.05L426.96-7.05Q426.96-11.1 429.53-12.73 432.11-14.35 436.66-14.35L436.66-14.35Q438.81-14.35 441.56-14.1L441.56-14.1Q441.56-17.1 440.71-18.2 439.86-19.3 437.76-19.3 435.66-19.3 432.86-18.8 430.06-18.3 428.56-17.8L428.56-17.8 427.61-22.55Q432.86-24.15 437.86-24.15 442.86-24.15 444.78-21.95 446.71-19.75 446.71-14.5L446.71-14.5 446.71-4.35 447.26 0.05 442.11 0.55 441.61-1.75Q437.41 0.55 434.96 0.55ZM460.16 2.2L451.41-23.75 457.01-23.75 462.76-4.45 463.16-4.45 468.01-23.75 473.46-23.75 466.86-0.6Q465.81 3.1 464.91 5.08 464.01 7.05 462.41 8.3 460.81 9.55 458.86 9.9 456.91 10.25 453.36 10.3L453.36 10.3 453.36 5.65Q456.41 5.65 457.86 5 459.31 4.35 459.86 2.95L459.86 2.95 460.16 2.2ZM490.95 0L483.7 0 483.7-7.25 490.95-7.25 490.95 0Z" opacity="1" transform="matrix(1,0,0,1,0,0)" fill="#000000" class="undefined-text-1" data-fill-palette-color="secondary" id="text-1"></path></svg></g></svg></g></svg></g></svg></g><g transform="matrix(1,0,0,1,0,5.166364805053007)"><svg viewBox="0 0 97.04269331407772 65.50381798700246" height="65.50381798700246" width="97.04269331407772"><g><svg xmlns="http://www.w3.org/2000/svg" xmlns:xlink="http://www.w3.org/1999/xlink" version="1.1" x="0" y="0" viewBox="20 28 40 27" enable-background="new 0 0 80 80" xml:space="preserve" height="65.50381798700246" width="97.04269331407772" class="icon-icon-0" data-fill-palette-color="accent" id="icon-0"><g fill="#e44c55" data-fill-palette-color="accent"><path fill="#000000" d="M57 52H23c-1.654 0-3-1.346-3-3V31c0-1.654 1.346-3 3-3h34c1.654 0 3 1.346 3 3v18C60 50.654 58.654 52 57 52zM23 30c-0.552 0-1 0.449-1 1v18c0 0.551 0.448 1 1 1h34c0.552 0 1-0.449 1-1V31c0-0.551-0.448-1-1-1H23z" data-fill-palette-color="accent"></path></g><g fill="#e44c55" data-fill-palette-color="accent"><path fill="#000000" d="M57 49H23V31h34V49zM25 47h30V33H25V47z" data-fill-palette-color="accent"></path></g><g fill="#e44c55" data-fill-palette-color="accent"><rect x="39" y="51" fill="#000000" width="2" height="3" data-fill-palette-color="accent"></rect></g><g fill="#e44c55" data-fill-palette-color="accent"><rect x="35" y="53" fill="#000000" width="10" height="2" data-fill-palette-color="accent"></rect></g></svg></g></svg></g></svg></g><defs></defs></svg><rect width="395.52" height="58.5939151163849" fill="none" stroke="none" visibility="hidden"></rect></g></svg></g></svg>